<svg xmlns="http://www.w3.org/2000/svg" version="1.1" xmlns:xlink="http://www.w3.org/1999/xlink" xmlns:svgjs="http://svgjs.dev/svgjs" width="1440" height="560" preserveAspectRatio="none" viewBox="0 0 1440 560"><g mask="url(&quot;#SvgjsMask1000&quot;)" fill="none"><rect width="1440" height="560" x="0" y="0" fill="#0e2a47"></rect><path d="M184.13 106.9L216.14 106.9L216.14 151.12L184.13 151.12z" fill="#037b0b"></path><path d="M-2.64 15.94 a3.4 3.4 0 1 0 6.8 0 a3.4 3.4 0 1 0 -6.8 0z" stroke="#037b0b"></path><path d="M1340.7 3.33 a12.91 12.91 0 1 0 25.82 0 a12.91 12.91 0 1 0 -25.82 0z" fill="#037b0b"></path><path d="M501.59 74.34L526.54 74.34L526.54 99.29L501.59 99.29z" fill="#d3b714"></path><path d="M931.64 388.92a5.94 5.94 0 1 0-7.76-8.99z" fill="#037b0b"></path><path d="M700.17 314.87L711.98 314.87L711.98 326.68L700.17 326.68z" fill="#e73635"></path><path d="M907.88 547.96 a6.06 6.06 0 1 0 12.12 0 a6.06 6.06 0 1 0 -12.12 0z" stroke="#037b0b"></path><path d="M430.29 355.2L480.3 355.2L480.3 405.21L430.29 405.21z" fill="#e73635"></path><path d="M1254.14 266.29L1284.31 266.29L1284.31 296.46L1254.14 296.46z" stroke="#037b0b"></path><path d="M82.32 74.16a54.65 54.65 0 1 0-84.85-68.89z" stroke="#037b0b"></path><path d="M1242.64 146.84a20.26 20.26 0 1 0 24.89-31.97z" stroke="#d3b714"></path><path d="M50.07 53.71a44.77 44.77 0 1 0-24.14 86.22z" stroke="#d3b714"></path><path d="M679.27 367.92a5.93 5.93 0 1 0-11.28-3.67z" stroke="#e73635"></path><path d="M246.48 138.33a45.42 45.42 0 1 0 90.8 2.93z" fill="#037b0b"></path><path d="M856.44 11.61L856.58 11.61L856.58 11.75L856.44 11.75z" fill="#037b0b"></path><path d="M264.47 26.24L284.05 26.24L284.05 45.82L264.47 45.82z" fill="#037b0b"></path><path d="M1339.34 512.55 a31.35 31.35 0 1 0 62.7 0 a31.35 31.35 0 1 0 -62.7 0z" fill="#d3b714"></path><path d="M63.25 511.65 a31.92 31.92 0 1 0 63.84 0 a31.92 31.92 0 1 0 -63.84 0z" stroke="#037b0b"></path><path d="M828.71 507.32a18.29 18.29 0 1 0 31.39-18.78z" fill="#e73635"></path><path d="M295.02 329.42L344.84 329.42L344.84 368.39L295.02 368.39z" stroke="#d3b714"></path><path d="M902.67 134.4 a34.17 34.17 0 1 0 68.34 0 a34.17 34.17 0 1 0 -68.34 0z" stroke="#d3b714"></path><path d="M139.33 402.3L184.45 402.3L184.45 456.55L139.33 456.55z" fill="#d3b714"></path><path d="M971.18 572.18a23.31 23.31 0 1 0-3-46.53z" fill="#037b0b"></path><path d="M12.27 391.4L50.3 391.4L50.3 429.43L12.27 429.43z" fill="#e73635"></path><path d="M37.36 447.78a24.69 24.69 0 1 0 38.32-31.14z" stroke="#037b0b"></path><path d="M1369.16 435.75L1397.9 435.75L1397.9 476.43L1369.16 476.43z" fill="#e73635"></path><path d="M1407.84 343.28L1416.68 343.28L1416.68 352.12L1407.84 352.12z" fill="#d3b714"></path><path d="M4.6 220.32L54.79 220.32L54.79 270.51L4.6 270.51z" stroke="#037b0b"></path><path d="M631.7 193.34L685.37 193.34L685.37 228.53L631.7 228.53z" fill="#d3b714"></path><path d="M516.81 413.18a54.39 54.39 0 1 0-108.11 12.03z" stroke="#037b0b"></path><path d="M915.94 555.09 a41.69 41.69 0 1 0 83.38 0 a41.69 41.69 0 1 0 -83.38 0z" stroke="#e73635"></path><path d="M362.39 518.68L415.76 518.68L415.76 572.05L362.39 572.05z" stroke="#037b0b"></path><path d="M1134.75 395.96L1179.93 395.96L1179.93 430.2L1134.75 430.2z" fill="#037b0b"></path></g><defs><mask id="SvgjsMask1000"><rect width="1440" height="560" fill="#ffffff"></rect></mask></defs></svg>