<svg xmlns="http://www.w3.org/2000/svg" version="1.1" xmlns:xlink="http://www.w3.org/1999/xlink" xmlns:svgjs="http://svgjs.dev/svgjs" width="1440" height="560" preserveAspectRatio="none" viewBox="0 0 1440 560"><g mask="url(&quot;#SvgjsMask1360&quot;)" fill="none"><rect width="1440" height="560" x="0" y="0" fill="none"></rect><path d="M670.68 596.75C809.91 586.47 884.56 325.49 1151.83 313.28 1419.1 301.07 1504.16 131.62 1632.98 128.48" stroke="rgba(51,121,194,0.33)" stroke-width="2"></path><path d="M536.37 563.72C651.01 526.42 611.16 193.81 845.32 193.46 1079.49 193.11 1297.99 424.73 1463.23 428.66" stroke="rgba(51,121,194,0.33)" stroke-width="2"></path><path d="M252 668.72C439.54 665.14 590.33 424.58 959.9 420.12 1329.23 415.66 1485.59 247.78 1667.81 246.52" stroke="rgba(51,121,194,0.33)" stroke-width="2"></path><path d="M304.98 647.11C430.51 637.23 515.26 387.55 735.95 386.42 956.64 385.29 951.43 456.42 1166.91 456.42 1382.4 456.42 1488.73 386.65 1597.88 386.42" stroke="rgba(51,121,194,0.33)" stroke-width="2"></path><path d="M574.58 565.17C651.95 564.99 637.38 518.72 879.84 514.17 1122.3 509.62 1323.69 251.23 1490.36 245.37" stroke="rgba(51,121,194,0.33)" stroke-width="2"></path></g><defs><mask id="SvgjsMask1360"><rect width="1440" height="560" fill="#ffffff"></rect></mask></defs></svg>